<?xml version="1.0" standalone="no"?>
<!DOCTYPE svg PUBLIC "-//W3C//DTD SVG 1.1//EN" "http://www.w3.org/Graphics/SVG/1.1/DTD/svg11.dtd" >
<svg xmlns="http://www.w3.org/2000/svg" xmlns:xlink="http://www.w3.org/1999/xlink" version="1.1">
<metadata></metadata>
<defs>
<font id="littera_textmedium" horiz-adv-x="1183" >
<font-face units-per-em="2048" ascent="1638" descent="-410" />
<missing-glyph horiz-adv-x="495" />
<glyph horiz-adv-x="0" />
<glyph horiz-adv-x="682" />
<glyph unicode=" "  horiz-adv-x="495" />
<glyph unicode="&#x09;" horiz-adv-x="495" />
<glyph unicode="&#xa0;" horiz-adv-x="495" />
<glyph unicode="!" horiz-adv-x="479" d="M102 125q0 59 40 99t98 40t97.5 -40t39.5 -99q0 -58 -39 -96.5t-98 -38.5t-98.5 38.5t-39.5 96.5zM121 1331h237l-20 -911h-197z" />
<glyph unicode="&#x22;" horiz-adv-x="669" d="M72 1446h223l-21 -451h-182zM377 1446h221l-20 -451h-181z" />
<glyph unicode="#" horiz-adv-x="1447" d="M0 317v201h336l108 279h-280v200h356l127 334h211l-127 -334h256l127 334h211l-127 -334h250v-200h-328l-106 -279h270v-201h-348l-121 -317h-211l121 317h-256l-121 -317h-209l121 317h-260zM547 518h256l106 279h-256z" />
<glyph unicode="$" horiz-adv-x="1105" d="M90 211l139 137q54 -85 138.5 -129.5t181.5 -44.5q124 0 183 54t59 149q0 79 -60 132.5t-186 90.5q-68 19 -115.5 35t-99.5 40t-86 53t-63 67.5t-42.5 89.5t-13.5 114q0 134 81.5 228.5t242.5 118.5v276h213v-276q95 -10 165.5 -48t135.5 -112l-129 -162 q-80 70 -140 100.5t-141 30.5q-100 0 -157.5 -41t-57.5 -119q0 -74 51.5 -112t192.5 -82q83 -26 140 -49t116.5 -59t95 -78t58 -102.5t22.5 -135.5q0 -162 -94 -263t-258 -128v-275h-213v271q-246 32 -359 229z" />
<glyph unicode="%" horiz-adv-x="1652" d="M35 1016q0 148 93.5 247t238.5 99t237 -99t92 -247t-92 -246t-237 -98t-238.5 98.5t-93.5 245.5zM211 1016q0 -76 44 -123t112 -47t110.5 47t42.5 123q0 79 -42.5 125.5t-110.5 46.5q-69 0 -112.5 -47t-43.5 -125zM426 39l606 1339l185 -90l-607 -1341zM956 313 q0 148 92.5 247t237.5 99t238.5 -99t93.5 -247q0 -147 -93.5 -245.5t-238.5 -98.5t-237.5 98t-92.5 246zM1133 313q0 -76 42.5 -123t110.5 -47q69 0 112.5 47t43.5 123q0 79 -43 125.5t-113 46.5q-68 0 -110.5 -46.5t-42.5 -125.5z" />
<glyph unicode="&#x26;" horiz-adv-x="1216" d="M72 326q0 67 18 122.5t54.5 100t76.5 77t98 68.5q-89 101 -122 171.5t-33 158.5q0 149 104.5 243.5t268.5 94.5q168 0 271 -81t103 -222q0 -116 -65.5 -209.5t-218.5 -194.5l211 -217q38 89 41 180h211q-7 -166 -95 -335q113 -113 170 -172q-21 -24 -65 -71.5t-66 -70.5 q-78 77 -151 154q-154 -154 -363 -154q-87 0 -164.5 20.5t-142.5 61.5t-103 112t-38 163zM291 346q0 -86 64 -131t161 -45q119 0 217 98l-276 287q-86 -54 -126 -99t-40 -110zM383 1008q0 -53 23 -98t86 -115q104 66 151 114t47 105q0 147 -153 147q-67 0 -110.5 -40.5 t-43.5 -112.5z" />
<glyph unicode="'" horiz-adv-x="366" d="M72 1446h223l-21 -451h-182z" />
<glyph unicode="(" horiz-adv-x="581" d="M123 557q0 492 250 913q16 -8 84 -41t104 -51q-217 -383 -217 -821q0 -422 217 -805q-37 -19 -107 -53t-81 -39q-250 418 -250 897z" />
<glyph unicode=")" horiz-adv-x="581" d="M20 -248q216 382 216 805q0 434 -216 821q31 16 93.5 46.5t93.5 45.5q252 -419 252 -913q0 -479 -250 -897q-16 8 -84 40.5t-105 51.5z" />
<glyph unicode="*" horiz-adv-x="772" d="M25 971v184l243 -25l-143 199l162 92l100 -223l100 223l160 -92l-145 -199l246 25v-184l-244 24l143 -198l-160 -92l-100 223l-100 -223l-162 92l143 198z" />
<glyph unicode="+" horiz-adv-x="1038" d="M113 399v187h299v303h215v-303h299v-187h-299v-303h-215v303h-299z" />
<glyph unicode="," horiz-adv-x="442" d="M66 -215q65 432 67 432h234l-150 -432h-151z" />
<glyph unicode="-" horiz-adv-x="890" d="M102 399v187h686v-187h-686z" />
<glyph unicode="." horiz-adv-x="417" d="M72 125q0 59 39.5 99t97.5 40t97.5 -40t39.5 -99q0 -58 -39 -96.5t-98 -38.5t-98 38.5t-39 96.5z" />
<glyph unicode="/" horiz-adv-x="948" d="M0 -166l764 1589l184 -90l-764 -1589z" />
<glyph unicode="0" horiz-adv-x="1114" d="M92 666q0 696 465 696t465 -696q0 -697 -465 -697t-465 697zM317 666q0 -265 59 -380.5t181 -115.5q125 0 182.5 114.5t57.5 381.5q0 269 -57 382t-183 113q-81 0 -133 -47t-79.5 -157.5t-27.5 -290.5z" />
<glyph unicode="1" horiz-adv-x="638" d="M45 870v203q98 0 168 76t70 182h223v-1331h-223v977q-55 -107 -238 -107z" />
<glyph unicode="2" horiz-adv-x="999" d="M86 0v201q218 195 308 286q284 291 284 469q0 109 -50 157t-124 48q-70 0 -121 -43t-72 -137l-200 61q15 74 46 131t69.5 92.5t87.5 57.5t96 30.5t100 8.5q59 0 113.5 -11t108 -39.5t92.5 -72t63 -113t24 -157.5q0 -93 -50.5 -203.5t-133 -213.5t-170 -191t-178.5 -160 h532v-201h-825z" />
<glyph unicode="3" horiz-adv-x="1036" d="M88 283l203 75q21 -93 78.5 -139.5t142.5 -46.5q83 0 136.5 58.5t53.5 168.5q0 98 -51 151.5t-129 53.5h-94v203h84q91 0 131.5 52t40.5 132q0 88 -49.5 130t-126.5 42q-29 0 -57 -9t-56.5 -28.5t-50 -58t-31.5 -90.5l-200 61q17 93 61 159.5t103 100.5t116.5 49 t118.5 15q185 0 297.5 -89.5t112.5 -256.5q0 -120 -58 -204t-155 -101v-13q113 -24 174 -107t61 -204q0 -85 -24 -158t-73 -132.5t-134.5 -93.5t-198.5 -34q-166 0 -277.5 78t-148.5 236z" />
<glyph unicode="4" horiz-adv-x="1021" d="M45 283v182l500 866h291v-864h141v-184h-141v-283h-224v283h-567zM276 467h336v598z" />
<glyph unicode="5" horiz-adv-x="1040" d="M86 283l205 75q19 -90 80 -138t137 -48q81 0 141 66.5t60 201.5q0 145 -49.5 212t-155.5 67q-120 0 -178 -115h-213l77 727h689v-201h-510l-33 -301q29 43 87 70t128 27q107 0 186.5 -39t124 -108t65.5 -152.5t21 -184.5q0 -73 -13.5 -139t-46 -128t-82 -107t-126 -72 t-172.5 -27q-172 0 -275.5 78t-146.5 236z" />
<glyph unicode="6" horiz-adv-x="1046" d="M88 582q0 180 25.5 319t67 224.5t102 140t123.5 75.5t137 21q171 0 267.5 -86t125.5 -223l-203 -74q-44 180 -194 180q-103 0 -167 -107.5t-71 -344.5q40 76 112 108.5t152 32.5q165 0 276.5 -110t110.5 -304q-1 -123 -35 -216t-92.5 -145.5t-128.5 -78t-151 -25.5 q-242 0 -349.5 150.5t-107.5 462.5zM317 408q0 -121 59.5 -179.5t149.5 -58.5q92 0 151.5 59t59.5 181q0 119 -58.5 178t-152.5 59q-87 0 -148 -60.5t-61 -178.5z" />
<glyph unicode="7" horiz-adv-x="919" d="M51 1130v201h817v-201q-72 -72 -158.5 -211t-148.5 -307q-57 -157 -83.5 -335t-26.5 -277h-232q0 98 27 276.5t84 335.5q62 168 148.5 307t158.5 211h-586z" />
<glyph unicode="8" horiz-adv-x="1048" d="M92 367q0 140 75 228.5t175 109.5v8q-96 25 -152.5 105.5t-56.5 191.5t53.5 192t141 120.5t196.5 39.5q168 0 279.5 -93t111.5 -257q0 -112 -57 -193t-153 -106v-8q102 -21 176.5 -109t74.5 -227q0 -105 -35.5 -184.5t-97 -125.5t-136.5 -68t-163 -22t-163 22t-136.5 68 t-97 124.5t-35.5 183.5zM319 375q0 -66 18 -114t49 -73.5t65 -37t73 -11.5q85 0 144 56.5t59 181.5q0 108 -58.5 167.5t-144.5 59.5q-87 0 -146 -60t-59 -169zM356 1008q0 -83 41.5 -143t126.5 -60t125.5 59.5t40.5 143.5q0 80 -42.5 132t-123.5 52q-80 0 -124 -52.5 t-44 -131.5z" />
<glyph unicode="9" horiz-adv-x="1046" d="M92 295l203 55q43 -178 213 -178q219 0 235 451q-40 -76 -111 -108t-151 -32q-163 0 -275.5 114.5t-111.5 301.5q1 123 36 215.5t95 145t131.5 77.5t153.5 25q224 0 334 -150.5t110 -463.5q0 -181 -23.5 -319t-63 -224t-97.5 -140t-121.5 -75t-140.5 -21q-92 0 -166 26.5 t-123 72.5t-80.5 103t-46.5 124zM309 922q0 -113 58.5 -175.5t148.5 -62.5q89 0 150 60.5t61 177.5q0 116 -62 177.5t-149 61.5q-88 0 -147.5 -61t-59.5 -178z" />
<glyph unicode=":" horiz-adv-x="468" d="M96 211q0 58 40.5 98.5t99.5 40.5q58 0 97.5 -40t39.5 -99t-39.5 -98t-97.5 -39q-59 0 -99.5 39.5t-40.5 97.5zM96 723q0 58 40.5 98.5t99.5 40.5q58 0 97.5 -40t39.5 -99q0 -58 -39 -96.5t-98 -38.5t-99.5 38.5t-40.5 96.5z" />
<glyph unicode=";" horiz-adv-x="446" d="M66 -215q65 432 67 432h234l-150 -432h-151zM100 723q0 59 40 99t98 40t97.5 -40t39.5 -99q0 -58 -39 -96.5t-98 -38.5t-98.5 38.5t-39.5 96.5z" />
<glyph unicode="&#x3c;" horiz-adv-x="843" d="M45 496l598 526l129 -141l-453 -385l453 -383l-127 -144z" />
<glyph unicode="=" horiz-adv-x="993" d="M113 246v186h768v-186h-768zM113 559v184h768v-184h-768z" />
<glyph unicode="&#x3e;" horiz-adv-x="843" d="M72 113l450 383l-450 385l127 141l598 -526l-600 -527z" />
<glyph unicode="?" horiz-adv-x="915" d="M51 942q0 95 24.5 170t64 121t93.5 76t108.5 41.5t113.5 11.5q182 0 295.5 -91.5t113.5 -254.5q0 -170 -162 -287q-37 -26 -54.5 -39t-39 -33.5t-30 -38t-15 -42t-6.5 -56.5v-100h-223v145q0 88 40 145.5t118 106.5q73 45 92 64q43 42 43 110q0 88 -47.5 130t-124.5 42 q-78 0 -130.5 -51t-52.5 -170h-221zM313 125q0 59 40 99t98 40q59 0 99 -40t40 -99q0 -58 -40 -96.5t-99 -38.5t-98.5 38.5t-39.5 96.5z" />
<glyph unicode="@" horiz-adv-x="1718" d="M86 434q0 372 211.5 597.5t564.5 225.5q358 0 564 -221t206 -596q0 -199 -83.5 -324.5t-237.5 -125.5q-94 0 -148.5 28t-85.5 82q-71 -62 -147.5 -86t-175.5 -24q-144 0 -220.5 77t-76.5 193q0 59 19 106t48.5 78.5t76.5 54.5t93 35.5t108 19.5t111 9t113 2q2 76 -43 118 t-133 42q-140 0 -232 -92l-110 139q137 139 348 139q187 0 290 -86t103 -288v-244q0 -52 20 -81.5t54 -29.5q54 0 80.5 71t26.5 187q0 127 -30.5 232t-83.5 177.5t-125.5 122t-155.5 72.5t-175 23q-91 0 -173.5 -23t-155.5 -72.5t-126.5 -122t-84.5 -177.5t-31 -232 q0 -318 147.5 -472t423.5 -154q180 0 309 75l111 -157q-182 -109 -420 -109q-366 0 -570 218t-204 593zM680 262q0 -42 30 -69t91 -27q67 0 120 19.5t105 72.5v148q-110 0 -181.5 -10.5t-106 -31.5t-46.5 -44.5t-12 -57.5z" />
<glyph unicode="A" horiz-adv-x="1361" d="M45 0l508 1331h256l506 -1331h-240l-106 295h-578l-106 -295h-240zM457 479h446l-223 637z" />
<glyph unicode="B" horiz-adv-x="1277" d="M133 0v1331h512q241 0 362 -86.5t121 -236.5q0 -108 -54 -192t-173 -111v-11q144 -19 217.5 -111.5t73.5 -213.5q0 -163 -122 -266t-368 -103h-569zM371 184h284q150 0 220.5 50t70.5 153q0 101 -79 149t-242 48h-254v-400zM371 776h213q158 0 229.5 44t71.5 149 q0 95 -70.5 136.5t-218.5 41.5h-225v-371z" />
<glyph unicode="C" horiz-adv-x="1376" d="M86 655q0 322 182.5 514.5t479.5 192.5q177 0 305 -64t219 -198l-170 -133q-70 103 -151 145.5t-203 42.5q-86 0 -161 -30t-133.5 -88.5t-92 -154t-33.5 -216.5q0 -126 34.5 -222.5t94.5 -153.5t135 -85.5t162 -28.5q234 0 362 195l172 -125q-171 -277 -538 -277 q-299 0 -481.5 183.5t-182.5 502.5z" />
<glyph unicode="D" horiz-adv-x="1343" d="M133 0v1331h473q306 0 477.5 -177t171.5 -495q0 -317 -168 -488t-475 -171h-479zM371 209h194q231 0 343 111.5t112 345.5q0 454 -455 454h-194v-911z" />
<glyph unicode="E" horiz-adv-x="1138" d="M133 0v1331h899v-203h-661v-352h549v-194h-549v-379h682v-203h-920z" />
<glyph unicode="F" horiz-adv-x="1093" d="M133 0v1331h889v-203h-651v-360h487v-195h-487v-573h-238z" />
<glyph unicode="G" horiz-adv-x="1427" d="M86 655q0 322 182.5 514.5t479.5 192.5q362 0 534 -252l-178 -145q-63 97 -149.5 143.5t-206.5 46.5q-86 0 -161 -30t-133.5 -88.5t-92 -154t-33.5 -216.5q0 -126 33.5 -222.5t92.5 -153.5t133 -85.5t161 -28.5q176 0 267 92t91 262h-408v185h643v-107 q0 -296 -152.5 -467.5t-440.5 -171.5q-147 0 -269 47t-209.5 133.5t-135.5 216t-48 289.5z" />
<glyph unicode="H" horiz-adv-x="1380" d="M133 0v1331h238v-559h641v559h235v-1331h-235v582h-641v-582h-238z" />
<glyph unicode="I" horiz-adv-x="503" d="M133 0v1331h238v-1331h-238z" />
<glyph unicode="J" horiz-adv-x="813" d="M51 49l74 197q32 -21 48.5 -30.5t47 -19.5t62.5 -10q82 0 120.5 64t38.5 199v882h238v-940q0 -209 -101.5 -315.5t-269.5 -106.5q-83 0 -150.5 25t-107.5 55z" />
<glyph unicode="K" horiz-adv-x="1298" d="M133 0v1331h238v-651l524 651h279l-482 -583l555 -748h-297l-413 586l-166 -203v-383h-238z" />
<glyph unicode="L" horiz-adv-x="1097" d="M133 0v1331h238v-1116h655v-215h-893z" />
<glyph unicode="M" horiz-adv-x="1634" d="M133 0v1331h262l424 -844l422 844h260v-1331h-235v942l-355 -696h-196l-344 696v-942h-238z" />
<glyph unicode="N" horiz-adv-x="1390" d="M133 0v1331h252l635 -956v956h237v-1331h-251l-635 954v-954h-238z" />
<glyph unicode="O" horiz-adv-x="1492" d="M86 666q0 315 178.5 505.5t483.5 190.5q303 0 481 -190.5t178 -505.5q0 -316 -177.5 -506.5t-481.5 -190.5q-305 0 -483.5 190.5t-178.5 506.5zM328 666q0 -225 114 -357.5t306 -132.5q194 0 305.5 131.5t111.5 358.5q0 228 -111 358.5t-306 130.5q-193 0 -306.5 -131.5 t-113.5 -357.5z" />
<glyph unicode="P" horiz-adv-x="1193" d="M133 0v1331h465q115 0 205.5 -23t160 -72t107 -132t37.5 -195t-37.5 -197t-106.5 -136.5t-160.5 -77t-205.5 -25.5h-227v-473h-238zM371 670h168q174 0 252.5 51t78.5 188q0 69 -22 114t-68 68.5t-102 32.5t-139 9h-168v-463z" />
<glyph unicode="Q" horiz-adv-x="1492" d="M86 666q0 315 178.5 505.5t483.5 190.5q303 0 481 -190.5t178 -505.5q0 -283 -146 -468.5t-399 -220.5q0 -120 53.5 -172.5t128.5 -52.5q36 0 76 15v-203q-14 -7 -46 -12t-50 -5q-69 0 -126.5 17t-96.5 43.5t-69 65t-47.5 76.5t-29.5 82.5t-16.5 78t-5.5 67.5 q-254 34 -400.5 219t-146.5 470zM328 666q0 -225 114 -357.5t306 -132.5q194 0 305.5 131.5t111.5 358.5q0 228 -111 358.5t-306 130.5q-193 0 -306.5 -131.5t-113.5 -357.5z" />
<glyph unicode="R" horiz-adv-x="1255" d="M133 0v1331h465q114 0 207.5 -24.5t165.5 -75t111.5 -134.5t39.5 -196q0 -142 -65.5 -241.5t-177.5 -151.5l321 -508h-287l-266 461q-40 -4 -49 -4h-227v-457h-238zM371 653h168q174 0 260 56t86 192q0 69 -24.5 116t-73 71.5t-107 34.5t-141.5 10h-168v-480z" />
<glyph unicode="S" horiz-adv-x="1220" d="M78 201l151 159q56 -82 163.5 -130t211.5 -48q133 0 205 52t72 137q0 76 -56.5 120.5t-197.5 79.5q-104 27 -174.5 50t-138.5 58t-107 76.5t-62.5 101t-23.5 136.5q0 169 131 269t354 100q332 0 473 -158l-139 -168q-145 123 -334 123q-107 0 -169 -43t-62 -119 q0 -74 50.5 -112t199.5 -80q189 -52 254 -79q169 -70 224 -192q32 -70 32 -163q0 -98 -44 -176t-118.5 -126.5t-168.5 -74t-200 -25.5q-67 0 -135.5 10.5t-143.5 35t-140.5 72.5t-106.5 114z" />
<glyph unicode="T" horiz-adv-x="1232" d="M72 1128v203h1089v-203h-426v-1128h-237v1128h-426z" />
<glyph unicode="U" horiz-adv-x="1366" d="M113 547v784h237v-721q0 -210 75.5 -318t256.5 -108q76 0 133.5 19.5t95.5 54.5t61.5 88.5t33.5 117.5t10 146v721h237v-784q0 -283 -155.5 -430.5t-411.5 -147.5q-124 0 -227.5 36t-181 106t-121 181.5t-43.5 254.5z" />
<glyph unicode="V" horiz-adv-x="1400" d="M51 1331h248l406 -1081l397 1081h248l-506 -1331h-287z" />
<glyph unicode="W" horiz-adv-x="1871" d="M51 1331h246l227 -1095l258 1095h308l253 -1095l232 1095h246l-312 -1331h-315l-258 1071l-260 -1071h-318z" />
<glyph unicode="X" horiz-adv-x="1378" d="M51 0l500 688l-459 643h291l305 -475l318 475h280l-461 -639l502 -692h-291l-350 514l-354 -514h-281z" />
<glyph unicode="Y" horiz-adv-x="1294" d="M35 1331h254l360 -667l357 667h251l-491 -876v-455h-238v455z" />
<glyph unicode="Z" horiz-adv-x="1196" d="M92 0v211l742 909h-701v211h969v-213l-742 -907h744v-211h-1012z" />
<glyph unicode="[" horiz-adv-x="628" d="M147 -307v1747h467v-193h-252v-1362h252v-192h-467z" />
<glyph unicode="\" horiz-adv-x="948" d="M0 1333l184 90l764 -1589l-184 -90z" />
<glyph unicode="]" horiz-adv-x="628" d="M14 -115h252v1362h-252v193h467v-1747h-467v192z" />
<glyph unicode="^" horiz-adv-x="1021" d="M61 874l451 498l449 -495l-142 -129l-307 354l-307 -354z" />
<glyph unicode="_" horiz-adv-x="1146" d="M127 0v193h891v-193h-891z" />
<glyph unicode="`" horiz-adv-x="432" d="M20 1331h248l160 -434h-172z" />
<glyph unicode="a" horiz-adv-x="1075" d="M66 250q0 68 22 122t56.5 90t88 62.5t105 40.5t119.5 22.5t119 10.5t116 2q1 95 -53.5 144t-142.5 49q-147 0 -252 -99l-101 137q100 84 187.5 113t177.5 29t161.5 -20.5t128 -64.5t87 -120t30.5 -180v-336q-1 -60 17 -84q16 -21 65 -21h13v-170q-34 -3 -66 -3t-63 3 q-129 10 -164 109q-133 -117 -340 -117q-144 0 -227.5 77.5t-83.5 203.5zM293 268q0 -125 153 -125q144 0 246 105v192q-149 0 -238 -20.5t-125 -57t-36 -94.5z" />
<glyph unicode="b" d="M133 0v1331h221v-530q91 168 312 168q196 0 313 -134t117 -366t-117 -366t-313 -134q-99 0 -186.5 47.5t-141.5 145.5v-162h-205zM346 469q2 -147 72.5 -232t191.5 -85q126 0 192 90t66 227t-66 227t-192 90q-125 0 -194.5 -85.5t-69.5 -231.5z" />
<glyph unicode="c" horiz-adv-x="1071" d="M86 463q0 226 136 368t362 142q130 0 231.5 -48.5t165.5 -136.5l-145 -120q-79 120 -252 120q-126 0 -200.5 -91.5t-74.5 -225.5t74.5 -225.5t200.5 -91.5q173 0 252 120l147 -120q-62 -88 -165 -136.5t-234 -48.5q-229 0 -363.5 135t-134.5 359z" />
<glyph unicode="d" d="M86 469q0 232 118 366t314 134q218 0 309 -168v530h224v-1331h-205v162q-56 -98 -143.5 -145.5t-184.5 -47.5q-198 0 -315 134t-117 366zM315 469q0 -137 66 -227t192 -90q121 0 192 85.5t71 231.5t-69 231.5t-194 85.5q-126 0 -192 -90t-66 -227z" />
<glyph unicode="e" horiz-adv-x="1095" d="M86 467q0 114 38 210.5t101.5 160.5t148 99.5t177.5 35.5q222 0 340.5 -129t118.5 -365v-80h-701q4 -113 85 -179t190 -66q175 0 278 122l131 -124q-137 -183 -411 -183q-240 0 -368 134.5t-128 363.5zM317 559h474q-19 229 -234 229q-94 0 -160.5 -60t-79.5 -169z" />
<glyph unicode="f" horiz-adv-x="768" d="M66 774v168h157v96q0 133 77.5 211t209.5 78q52 0 110.5 -12t90.5 -25l-31 -168q-9 4 -54.5 10.5t-70.5 6.5q-66 0 -87.5 -35t-21.5 -113v-49h207v-168h-207v-774h-223v774h-157z" />
<glyph unicode="g" d="M86 473q0 232 117 366t315 134q97 0 184.5 -48t143.5 -145v162h205v-858q0 -245 -136 -368.5t-368 -123.5q-277 0 -404 193l131 125q52 -66 117.5 -95.5t155.5 -29.5q141 0 210.5 72.5t69.5 226.5v55q-92 -168 -309 -168q-196 0 -314 135t-118 367zM315 473 q0 -137 66 -227t192 -90q125 0 194 85.5t69 231.5t-70.5 230.5t-192.5 84.5q-126 0 -192 -89.5t-66 -225.5z" />
<glyph unicode="h" horiz-adv-x="1132" d="M133 0v1331h221v-567q45 107 126.5 158t178.5 51q340 0 340 -410v-563h-223v532q0 141 -39 198.5t-133 57.5q-75 0 -133 -45t-87.5 -115.5t-29.5 -152.5v-475h-221z" />
<glyph unicode="i" horiz-adv-x="487" d="M106 1270q0 59 40 99t98 40t97.5 -40t39.5 -99q0 -58 -39.5 -97.5t-97.5 -39.5q-59 0 -98.5 39.5t-39.5 97.5zM133 0v942h221v-942h-221z" />
<glyph unicode="j" horiz-adv-x="487" d="M-66 -358l27 168q28 -11 68 -11q104 0 104 170v973h221v-983q0 -344 -280 -344q-29 0 -77.5 8.5t-62.5 18.5zM106 1270q0 59 40 99t98 40t97.5 -40t39.5 -99q0 -58 -39.5 -97.5t-97.5 -39.5q-59 0 -98.5 39.5t-39.5 97.5z" />
<glyph unicode="k" horiz-adv-x="1081" d="M133 0v1331h221v-827l383 438h262l-387 -416l424 -526h-270l-287 389l-125 -133v-256h-221z" />
<glyph unicode="l" horiz-adv-x="487" d="M133 0v1331h221v-1331h-221z" />
<glyph unicode="m" horiz-adv-x="1632" d="M133 0v942h211v-166q51 99 126.5 148t154.5 49q49 0 86 -7.5t74.5 -27.5t65.5 -61.5t46 -104.5h10q43 98 120 149.5t169 51.5q52 0 94 -10.5t82 -39t67 -73.5t43.5 -118t16.5 -169v-563h-221v532q0 130 -37.5 190t-120.5 60q-81 0 -136.5 -74.5t-55.5 -201.5v-506h-223 v532q0 130 -36.5 190t-119.5 60q-82 0 -138.5 -74.5t-56.5 -201.5v-506h-221z" />
<glyph unicode="n" horiz-adv-x="1132" d="M133 0v942h205v-192q100 223 321 223q340 0 340 -410v-563h-223v532q0 141 -39 198.5t-133 57.5q-75 0 -133 -45t-87.5 -115.5t-29.5 -152.5v-475h-221z" />
<glyph unicode="o" horiz-adv-x="1165" d="M86 471q0 225 134.5 363.5t361.5 138.5t361 -138.5t134 -363.5q0 -226 -133 -364t-362 -138q-228 0 -362 138.5t-134 363.5zM309 471q0 -134 74 -225.5t199 -91.5q127 0 200.5 91t73.5 226t-73.5 226t-200.5 91q-125 0 -199 -91.5t-74 -225.5z" />
<glyph unicode="p" d="M133 -377v1319h205v-162q54 97 142 145t186 48q196 0 313 -134t117 -366q0 -233 -117.5 -367.5t-312.5 -134.5q-220 0 -312 168v-516h-221zM346 473q0 -146 69.5 -231.5t194.5 -85.5q126 0 192 90t66 227q0 136 -66 225.5t-192 89.5q-121 0 -191.5 -84.5t-72.5 -230.5z " />
<glyph unicode="q" d="M86 473q0 232 117 366t315 134q97 0 184.5 -48t143.5 -145v162h205v-1319h-224v516q-92 -168 -309 -168q-196 0 -314 135t-118 367zM315 473q0 -137 66 -227t192 -90q125 0 194 85.5t69 231.5t-70.5 230.5t-192.5 84.5q-126 0 -192 -89.5t-66 -225.5z" />
<glyph unicode="r" horiz-adv-x="858" d="M133 0v942h211v-235q22 62 53.5 109.5t64.5 75.5t72 45.5t72.5 23.5t69.5 6q69 0 117 -23l-27 -203q-38 13 -90 13q-142 0 -232 -99.5t-90 -244.5v-410h-221z" />
<glyph unicode="s" horiz-adv-x="972" d="M86 152l109 127q134 -140 299 -140q47 0 86.5 11t68.5 40.5t29 73.5q0 54 -43.5 79.5t-155.5 55.5q-46 13 -72 20.5t-63.5 20t-58.5 22t-48.5 24t-42 28.5t-31.5 33t-25 41t-13.5 49t-5.5 59q0 75 31.5 130.5t85.5 86.5t117 45.5t136 14.5q111 0 210.5 -32t156.5 -83 l-94 -145q-141 92 -266 92q-26 0 -52 -4.5t-53.5 -15.5t-45 -34t-17.5 -55q0 -16 4.5 -28t16 -22t22.5 -16.5t34.5 -14t40 -12t50 -13.5t55.5 -15q45 -13 70.5 -21t62.5 -21t58.5 -25t48 -29.5t41.5 -38t29 -46.5t20 -58.5t6 -71.5q0 -127 -105 -211t-282 -84 q-129 0 -240.5 48t-173.5 135z" />
<glyph unicode="t" horiz-adv-x="772" d="M92 774v168h133v246h221v-246h187v-168h-187v-469q0 -85 6 -104q21 -41 80 -43q22 0 58.5 5.5t44.5 8.5l29 -168q-88 -35 -181 -35q-147 0 -202.5 71.5t-55.5 215.5v518h-133z" />
<glyph unicode="u" horiz-adv-x="1132" d="M133 379v563h221v-532q0 -138 44.5 -198t140.5 -60q111 0 174 92t63 221v477h223v-942h-204v193q-100 -224 -312 -224q-55 0 -102.5 10.5t-94.5 39t-79.5 73.5t-53 118t-20.5 169z" />
<glyph unicode="v" horiz-adv-x="1138" d="M61 942h232l276 -721l277 721h231l-389 -942h-237z" />
<glyph unicode="w" horiz-adv-x="1603" d="M66 942h231l168 -711l213 711h244l217 -711l168 711h229l-281 -942h-229l-225 725l-223 -725h-232z" />
<glyph unicode="x" horiz-adv-x="1067" d="M51 0l355 492l-324 450h258l192 -307l195 307h258l-326 -450l357 -492h-258l-226 346l-223 -346h-258z" />
<glyph unicode="y" horiz-adv-x="1089" d="M66 942h237l266 -696l240 696h229l-379 -985q-45 -116 -89 -184t-102 -108t-131 -46q-27 -2 -59 -2q-53 0 -118 6v195q37 -3 67 -3q80 0 122 22q58 31 91 124l15 39z" />
<glyph unicode="z" horiz-adv-x="1024" d="M106 0v190l537 562h-516v190h768v-190l-533 -562h553v-190h-809z" />
<glyph unicode="{" horiz-adv-x="641" d="M61 494v139q42 0 85.5 46.5t43.5 108.5v359q0 77 20.5 135.5t56 93t85 54t107 19.5t121.5 -11v-201q-101 30 -142 -11t-41 -153v-309q0 -41 -10 -74t-30 -56.5t-38 -38.5t-45 -32q27 -17 45 -32t38 -38.5t30 -56.5t10 -74v-305q0 -112 41 -152.5t142 -10.5v-201 q-64 -11 -121.5 -11t-107 19.5t-85 54t-56 93t-20.5 135.5v354q0 62 -43.5 109t-85.5 47z" />
<glyph unicode="|" horiz-adv-x="481" d="M133 -307v1747h215v-1747h-215z" />
<glyph unicode="}" horiz-adv-x="641" d="M61 -106q101 -30 142 10.5t41 152.5v305q0 41 10 74t30 56.5t38 38.5t45 32q-27 17 -45 32t-38 38.5t-30 56.5t-10 74v309q0 112 -41 153t-142 11v201q64 11 121.5 11t107 -19.5t85 -54t56 -93t20.5 -135.5v-359q0 -62 43.5 -108.5t85.5 -46.5v-139q-42 0 -85.5 -47 t-43.5 -109v-354q0 -77 -20.5 -135.5t-56 -93t-85 -54t-107 -19.5t-121.5 11v201z" />
<glyph unicode="~" horiz-adv-x="1296" d="M86 358q5 83 29 147t70.5 109.5t116 56t165.5 -13.5l344 -110q101 -35 154.5 -3.5t50.5 136.5l192 -51q-5 -83 -29.5 -147t-71 -108.5t-115 -53t-163.5 19.5l-344 111q-210 66 -204 -144z" />
<glyph unicode="&#xa3;" horiz-adv-x="1337" d="M86 455v184h246q-2 6 -14.5 36.5t-18.5 49.5h-213v170h184q0 59 6 90q22 178 145 278.5t318 100.5q126 0 220.5 -36t183.5 -126q-26 -29 -75.5 -85.5t-70.5 -80.5q-55 69 -113.5 97t-144.5 28q-83 0 -141 -46t-78 -126q-12 -41 -12 -94h346v-170h-319q17 -61 22 -86h297 v-184h-289q-3 -61 -22 -123q36 0 67 -10q31 -9 66.5 -24t85 -38.5t69.5 -32.5q98 -45 153 -19.5t52 130.5q130 -33 193 -51q-5 -83 -31 -150.5t-73 -113.5t-115.5 -53.5t-159.5 28.5q-117 49 -205 86q-98 45 -153 15.5t-52 -134.5q-102 25 -194 51q2 38 11.5 79.5t16.5 61.5 t25 70q49 126 59 228h-272z" />
<glyph unicode="&#xa4;" horiz-adv-x="1044" d="M96 182l115 217q-94 112 -94 277q0 164 94 276l-115 217l203 97l100 -207q61 14 123 14q63 0 121 -14l100 207l203 -97l-115 -217q97 -115 97 -276q0 -164 -97 -279l115 -215l-203 -96l-100 207q-58 -14 -121 -14q-62 0 -123 14l-100 -207zM326 676q0 -111 52 -171.5 t144 -60.5q91 0 144 60.5t53 171.5t-53 171t-144 60q-92 0 -144 -60t-52 -171z" />
<glyph unicode="&#xa6;" horiz-adv-x="481" d="M133 -307v788h215v-788h-215zM133 649v791h215v-791h-215z" />
<glyph unicode="&#xa7;" horiz-adv-x="956" d="M113 147l125 115q30 -50 92.5 -79t134.5 -29q89 0 131.5 26t42.5 64q0 32 -28.5 57.5t-74.5 45t-101 39t-110 45.5t-101 58.5t-74.5 83.5t-28.5 115q0 116 94 207q-102 69 -102 174q0 76 34.5 135t89.5 92t116 49.5t122 16.5q124 0 226 -53t143 -125l-125 -115 q-30 50 -93 78.5t-134 28.5q-90 0 -132.5 -26t-42.5 -65q0 -36 38.5 -65.5t96 -49t125 -48t125 -60.5t96 -89.5t38.5 -131.5q0 -110 -97 -207q105 -74 105 -172q0 -62 -23.5 -113t-60.5 -83.5t-86 -55t-98 -32t-97 -9.5q-125 0 -226 52.5t-140 125.5zM322 694 q0 -20 7.5 -37.5t24 -33t33 -27t46 -25t49.5 -21.5t56 -22q21 -8 31 -12q66 52 66 119q0 24 -12.5 45.5t-32.5 37.5t-51 32.5t-60.5 28.5t-69.5 27l-24 9q-20 -17 -30.5 -28.5t-21.5 -36.5t-11 -56z" />
<glyph unicode="&#xa9;" horiz-adv-x="1175" d="M86 471q0 136 67 251.5t182 183t251 67.5t251.5 -67.5t182.5 -183t67 -251.5t-67 -251.5t-182.5 -183t-251.5 -67.5t-251 67.5t-182 183t-67 251.5zM231 471q0 -148 103 -252t252 -104t253.5 104t104.5 252t-104.5 252t-253.5 104t-252 -104t-103 -252zM299 471 q0 120 84.5 204.5t204.5 84.5q82 0 150 -43t106 -113l-117 -72q-19 40 -55.5 66.5t-83.5 26.5q-64 0 -107 -45t-43 -109t43 -110t107 -46q45 0 83 27t56 66l117 -72q-37 -70 -105.5 -112t-150.5 -42q-120 0 -204.5 84.5t-84.5 204.5z" />
<glyph unicode="&#xab;" horiz-adv-x="983" d="M61 485l373 482l160 -113l-301 -369l301 -366l-160 -115zM424 485l340 394l147 -119l-258 -275l258 -297l-147 -116z" />
<glyph unicode="&#xad;" horiz-adv-x="890" d="M102 399v187h686v-187h-686z" />
<glyph unicode="&#xae;" horiz-adv-x="1165" d="M82 471q0 136 67 251.5t182 183t251 67.5t251.5 -67.5t182.5 -183t67 -251.5t-67 -251.5t-182.5 -183t-251.5 -67.5t-251 67.5t-182 183t-67 251.5zM225 471q0 -148 104 -252t253 -104t252.5 104t103.5 252t-103.5 252t-252.5 104t-253 -104t-104 -252zM379 233v467h270 q65 -2 110.5 -47.5t45.5 -109.5q0 -42 -20 -77t-54 -56l94 -177h-151l-66 154h-96v-154h-133zM512 485h96q28 0 46 15.5t18 42.5t-18 44t-46 17h-96v-119z" />
<glyph unicode="&#xb0;" horiz-adv-x="530" d="M25 1120q0 106 67 174t172 68q104 0 172 -68t68 -174q0 -104 -67.5 -170.5t-172.5 -66.5q-106 0 -172.5 66.5t-66.5 170.5zM162 1120q0 -47 28 -73.5t74 -26.5q45 0 74 27t29 73q0 47 -29 75t-74 28q-46 0 -74 -28t-28 -75z" />
<glyph unicode="&#xb1;" horiz-adv-x="1099" d="M113 98v201h874v-201h-874zM113 668v200h329v293h215v-293h330v-200h-330v-295h-215v295h-329z" />
<glyph unicode="&#xb6;" horiz-adv-x="1056" d="M45 1055q0 157 111 268t268 111h145v-1557h-145v799q-157 0 -268 111t-111 268zM700 -123v1557h224v-1557h-224z" />
<glyph unicode="&#xb7;" horiz-adv-x="540" d="M133 504q0 59 39.5 99t97.5 40t98 -40t40 -99q0 -58 -39.5 -97.5t-98.5 -39.5q-58 0 -97.5 39.5t-39.5 97.5z" />
<glyph unicode="&#xbb;" horiz-adv-x="983" d="M72 188l256 297l-256 275l147 119l338 -394l-338 -413zM389 119l301 366l-301 369l160 113l373 -482l-373 -481z" />
<glyph unicode="&#x2000;" horiz-adv-x="811" />
<glyph unicode="&#x2001;" horiz-adv-x="1622" />
<glyph unicode="&#x2002;" horiz-adv-x="811" />
<glyph unicode="&#x2003;" horiz-adv-x="1622" />
<glyph unicode="&#x2004;" horiz-adv-x="540" />
<glyph unicode="&#x2005;" horiz-adv-x="405" />
<glyph unicode="&#x2006;" horiz-adv-x="270" />
<glyph unicode="&#x2007;" horiz-adv-x="270" />
<glyph unicode="&#x2008;" horiz-adv-x="202" />
<glyph unicode="&#x2009;" horiz-adv-x="324" />
<glyph unicode="&#x200a;" horiz-adv-x="90" />
<glyph unicode="&#x2010;" horiz-adv-x="890" d="M102 399v187h686v-187h-686z" />
<glyph unicode="&#x2011;" horiz-adv-x="890" d="M102 399v187h686v-187h-686z" />
<glyph unicode="&#x2012;" horiz-adv-x="890" d="M102 399v187h686v-187h-686z" />
<glyph unicode="&#x2013;" horiz-adv-x="1054" d="M143 399v187h768v-187h-768z" />
<glyph unicode="&#x2014;" horiz-adv-x="1505" d="M225 399v187h1055v-187h-1055z" />
<glyph unicode="&#x2018;" horiz-adv-x="432" d="M66 954l149 432h152q-66 -432 -68 -432h-233z" />
<glyph unicode="&#x2019;" horiz-adv-x="432" d="M66 897q65 434 67 434h234l-150 -434h-151z" />
<glyph unicode="&#x201a;" horiz-adv-x="442" d="M66 -215q65 432 67 432h234l-150 -432h-151z" />
<glyph unicode="&#x201c;" horiz-adv-x="749" d="M51 954l148 432h151q-63 -432 -65 -432h-234zM383 954l149 432h152q-66 -432 -68 -432h-233z" />
<glyph unicode="&#x201d;" horiz-adv-x="749" d="M66 897q65 434 67 434h234l-150 -434h-151zM399 897q64 434 66 434h233l-147 -434h-152z" />
<glyph unicode="&#x201e;" horiz-adv-x="765" d="M66 -215q65 432 67 432h234l-150 -432h-151zM399 -215q64 432 66 432h233l-147 -432h-152z" />
<glyph unicode="&#x2022;" horiz-adv-x="665" d="M147 489q0 74 53.5 129.5t131.5 55.5q74 0 129 -54.5t55 -130.5q0 -78 -55 -131t-129 -53q-78 0 -131.5 55t-53.5 129z" />
<glyph unicode="&#x2026;" horiz-adv-x="1288" d="M86 125q0 59 40 99t99 40q58 0 97.5 -40t39.5 -99q0 -58 -39 -96.5t-98 -38.5t-99 38.5t-40 96.5zM506 125q0 59 40 99t99 40q58 0 97.5 -40t39.5 -99q0 -58 -39 -96.5t-98 -38.5t-99 38.5t-40 96.5zM926 125q0 59 40 99t99 40q58 0 97.5 -40t39.5 -99q0 -58 -39 -96.5 t-98 -38.5t-99 38.5t-40 96.5z" />
<glyph unicode="&#x202f;" horiz-adv-x="324" />
<glyph unicode="&#x2039;" horiz-adv-x="675" d="M45 485l422 461l137 -129l-319 -332l319 -331l-137 -129z" />
<glyph unicode="&#x203a;" horiz-adv-x="675" d="M72 154l317 331l-317 332l135 129l422 -461l-422 -460z" />
<glyph unicode="&#x205f;" horiz-adv-x="405" />
<glyph unicode="&#x20ac;" horiz-adv-x="1134" d="M25 451v167h153v93h-153v170h161q21 246 142 363.5t311 117.5q74 0 132.5 -12t115.5 -42.5t102 -89.5t76 -147l-207 -84q-13 46 -34.5 79.5t-42.5 51t-48.5 28t-48 13t-45.5 2.5q-99 0 -160 -67.5t-65 -212.5h307v-170h-318v-93h318v-167h-307q4 -145 65 -213t160 -68 q25 0 45.5 2.5t48 13t48.5 28t42.5 51t34.5 79.5l207 -84q-31 -88 -76 -147t-102 -89.5t-115.5 -42.5t-132.5 -12q-189 0 -310.5 118t-142.5 364h-161z" />
<glyph unicode="&#x2122;" horiz-adv-x="1028" d="M25 1206v125h600l98 -278l98 278h180v-473h-145v232l-84 -232h-96l-84 232v-232h-148v348h-133v-348h-147v348h-139z" />
<glyph unicode="&#x25fc;" horiz-adv-x="942" d="M0 0v942h942v-942h-942z" />
</font>
</defs>
</svg>
