<svg xmlns="http://www.w3.org/2000/svg"
     viewBox="0 0 20 20">
    <symbol id="ArrowsClockwise"
            viewBox="0 0 20 20">
        <path d="M 19.966 1.72 L 19.966 6.713 C 19.966 6.933 19.878 7.146 19.722 7.301 C 19.566 7.457 19.354 7.545 19.133 7.545 L 14.142 7.545 C 13.921 7.545 13.71 7.457 13.553 7.301 C 13.397 7.146 13.309 6.933 13.309 6.713 C 13.309 6.493 13.397 6.28 13.553 6.125 C 13.71 5.968 13.921 5.881 14.142 5.881 L 17.126 5.881 L 15.604 4.359 C 14.058 2.806 11.959 1.929 9.766 1.923 L 9.72 1.923 C 7.546 1.918 5.458 2.769 3.906 4.29 C 3.747 4.439 3.538 4.52 3.32 4.514 C 3.102 4.51 2.896 4.42 2.744 4.264 C 2.592 4.109 2.507 3.9 2.507 3.683 C 2.507 3.465 2.592 3.256 2.744 3.101 C 4.624 1.264 7.152 0.242 9.782 0.257 C 12.409 0.273 14.925 1.325 16.785 3.183 L 18.301 4.704 L 18.301 1.72 C 18.301 1.501 18.39 1.289 18.546 1.132 C 18.701 0.977 18.914 0.89 19.133 0.89 C 19.354 0.89 19.566 0.977 19.722 1.132 C 19.878 1.289 19.966 1.501 19.966 1.72 Z M 16.056 15.792 C 14.49 17.321 12.383 18.172 10.194 18.159 C 8.004 18.147 5.908 17.271 4.359 15.723 L 2.838 14.201 L 5.821 14.201 C 6.042 14.201 6.253 14.113 6.41 13.958 C 6.566 13.802 6.653 13.589 6.653 13.369 C 6.653 13.149 6.566 12.938 6.41 12.781 C 6.253 12.624 6.042 12.537 5.821 12.537 L 0.83 12.537 C 0.608 12.537 0.397 12.624 0.24 12.781 C 0.086 12.938 -0.003 13.149 -0.003 13.369 L -0.003 18.361 C -0.003 18.582 0.086 18.794 0.24 18.95 C 0.397 19.105 0.608 19.194 0.83 19.194 C 1.05 19.194 1.261 19.105 1.418 18.95 C 1.574 18.794 1.662 18.582 1.662 18.361 L 1.662 15.377 L 3.183 16.899 C 5.039 18.764 7.559 19.816 10.19 19.824 L 10.245 19.824 C 12.853 19.831 15.36 18.809 17.22 16.981 C 17.372 16.826 17.456 16.617 17.456 16.4 C 17.456 16.182 17.372 15.973 17.22 15.818 C 17.069 15.662 16.862 15.573 16.644 15.568 C 16.427 15.564 16.216 15.643 16.057 15.792 L 16.056 15.792 Z" />
    </symbol>
</svg>