<svg xmlns="http://www.w3.org/2000/svg"
     viewBox="0 0 20 20">
    <symbol id="CalendarBlank">
        <path d="M 17.637 1.543 L 15.334 1.543 L 15.334 0.776 C 15.334 0.572 15.253 0.377 15.109 0.233 C 14.964 0.089 14.769 0.008 14.565 0.008 C 14.362 0.008 14.166 0.089 14.023 0.233 C 13.879 0.377 13.798 0.572 13.798 0.776 L 13.798 1.543 L 6.118 1.543 L 6.118 0.776 C 6.118 0.572 6.037 0.377 5.893 0.233 C 5.749 0.089 5.553 0.008 5.349 0.008 C 5.145 0.008 4.95 0.089 4.806 0.233 C 4.662 0.377 4.581 0.572 4.581 0.776 L 4.581 1.543 L 2.277 1.543 C 1.869 1.543 1.479 1.705 1.191 1.993 C 0.903 2.282 0.741 2.673 0.741 3.08 L 0.741 18.44 C 0.741 18.848 0.903 19.238 1.191 19.526 C 1.479 19.814 1.869 19.976 2.277 19.976 L 17.637 19.976 C 18.045 19.976 18.436 19.814 18.724 19.526 C 19.012 19.238 19.174 18.848 19.174 18.44 L 19.174 3.08 C 19.174 2.673 19.012 2.282 18.724 1.993 C 18.436 1.705 18.045 1.543 17.637 1.543 Z M 4.581 3.08 L 4.581 3.848 C 4.581 4.051 4.662 4.246 4.806 4.39 C 4.95 4.535 5.145 4.615 5.349 4.615 C 5.553 4.615 5.749 4.535 5.893 4.39 C 6.037 4.246 6.118 4.051 6.118 3.848 L 6.118 3.08 L 13.798 3.08 L 13.798 3.848 C 13.798 4.051 13.879 4.246 14.023 4.39 C 14.166 4.535 14.362 4.615 14.565 4.615 C 14.769 4.615 14.964 4.535 15.109 4.39 C 15.253 4.246 15.334 4.051 15.334 3.848 L 15.334 3.08 L 17.637 3.08 L 17.637 6.152 L 2.277 6.152 L 2.277 3.08 L 4.581 3.08 Z M 17.637 18.44 L 2.277 18.44 L 2.277 7.688 L 17.637 7.688 L 17.637 18.44 Z" />
    </symbol>
</svg>