<?xml version="1.0" encoding="utf-8"?>
<svg xmlns="http://www.w3.org/2000/svg"
     viewBox="0 0 20 20">
    <symbol id="PencilSimple">
        <path d="M 19.546 4.917 L 15.083 0.453 C 14.935 0.307 14.759 0.187 14.564 0.108 C 14.369 0.028 14.163 -0.015 13.953 -0.015 C 13.743 -0.015 13.534 0.028 13.342 0.108 C 13.148 0.187 12.97 0.307 12.823 0.453 L 0.509 12.769 C 0.36 12.917 0.242 13.092 0.161 13.287 C 0.08 13.481 0.039 13.689 0.04 13.898 L 0.04 18.361 C 0.04 18.786 0.209 19.191 0.509 19.491 C 0.808 19.79 1.214 19.96 1.638 19.96 L 6.101 19.96 C 6.311 19.96 6.518 19.919 6.713 19.839 C 6.908 19.758 7.083 19.64 7.231 19.49 L 19.546 7.177 C 19.692 7.03 19.811 6.851 19.891 6.658 C 19.971 6.465 20.014 6.258 20.014 6.046 C 20.014 5.837 19.971 5.63 19.891 5.437 C 19.811 5.241 19.692 5.065 19.546 4.917 Z M 6.101 18.361 L 1.638 18.361 L 1.638 13.898 L 10.426 5.111 L 14.888 9.573 L 6.101 18.361 Z M 16.019 8.442 L 11.556 3.98 L 13.953 1.584 L 18.416 6.046 L 16.019 8.442 Z"
              style="" />
    </symbol>
</svg>